<?xml version="1.0" encoding="iso-8859-1"?>
<!-- Generator: Adobe Illustrator 19.0.0, SVG Export Plug-In . SVG Version: 6.00 Build 0)  -->
<svg version="1.1" id="Layer_1" xmlns="http://www.w3.org/2000/svg" xmlns:xlink="http://www.w3.org/1999/xlink" x="0px" y="0px"
	 viewBox="0 0 512 512" style="enable-background:new 0 0 512 512;" xml:space="preserve">
<g>
	<g>
		<path d="M508,177.796H308c-2.212,0-4,1.792-4,4s1.788,4,4,4h196v264H8v-264h196c2.212,0,4-1.792,4-4s-1.788-4-4-4H4
			c-2.212,0-4,1.792-4,4v272c0,2.212,1.788,4,4,4h504c2.212,0,4-1.788,4-4v-272C512,179.588,510.212,177.796,508,177.796z"/>
	</g>
</g>
<g>
	<g>
		<path d="M472,250.788c-23.084,0-35.164-16.596-35.164-32.992c0-2.208-1.788-4-4-4H308c-2.212,0-4,1.792-4,4s1.788,4,4,4h121.012
			c1.808,20.42,17.448,35.208,38.988,36.84V376.32c-21.232,1.716-37.144,17.024-38.984,37.476H80.064
			c-1.888-19.412-17.312-35.404-36.064-37.42V258.588c19.036-1.92,34.216-17.4,36.068-36.792H204c2.212,0,4-1.792,4-4s-1.788-4-4-4
			H76.256c-2.212,0-4,1.792-4,4c0,17.884-14.772,32.992-32.256,32.992c-2.212,0-4,1.792-4,4V380.16c0,2.212,1.788,4,4,4
			c17.484,0,32.256,15.4,32.256,33.636c0,2.212,1.788,4,4,4h356.58c2.212,0,4-1.788,4-4c0-16.716,12.08-33.636,35.164-33.636
			c2.212,0,4-1.788,4-4V254.788C476,252.58,474.212,250.788,472,250.788z"/>
	</g>
</g>
<g>
	<g>
		<path d="M320.608,275.996c-0.636-2.116-2.86-3.312-4.98-2.684c-2.116,0.636-3.316,2.868-2.684,4.98
			c3.716,12.384,5.604,25.596,5.604,39.268c0,52.98-28.712,96.084-64,96.084c-35.288,0-64-43.104-64-96.084
			c0-22.736,5.416-44.808,15.252-62.14c1.088-1.92,0.412-4.364-1.508-5.452c-1.916-1.092-4.36-0.412-5.452,1.504
			c-10.508,18.52-16.292,41.992-16.292,66.088c0,57.392,32.3,104.084,72,104.084c39.7,0,72-46.692,72-104.08
			C326.548,303.112,324.548,289.124,320.608,275.996z"/>
	</g>
</g>
<g>
	<g>
		<path d="M139.016,313.556c-2.212,0-4,1.788-4,4c0,11.212-9.12,20.332-20.328,20.332c-11.216,0-20.336-9.12-20.336-20.332
			c0-11.212,9.12-20.332,20.336-20.332c2.212,0,4-1.788,4-4c0-2.212-1.788-4-4-4c-15.624,0-28.336,12.712-28.336,28.332
			s12.712,28.332,28.336,28.332c15.62,0,28.328-12.708,28.328-28.332C143.016,315.344,141.228,313.556,139.016,313.556z"/>
	</g>
</g>
<g>
	<g>
		<path d="M275.992,339.368v-8.64c7.368-7.484,11.556-21.028,11.556-37.588c0-23.668-11.016-35.668-32.752-35.668
			c-22.184,0-33.432,12-33.432,35.668c0,16.076,7.548,31.352,10.632,36.916v9.312c-31.784,5.596-38.588,19.384-38.588,30.152
			c0,2.212,1.788,4,4,4c2.212,0,4-1.788,4-4c0-14.496,19.132-20.392,35.18-22.792c1.964-0.292,3.412-1.976,3.412-3.956v-13.764
			c0-0.7-0.184-1.388-0.528-1.992c-2.368-4.124-10.1-18.756-10.1-33.876c0-19.136,7.844-27.668,25.432-27.668
			c17.348,0,24.752,8.272,24.752,27.668c0,14.796-3.904,27.388-10.18,32.848c-0.876,0.764-1.376,1.864-1.376,3.02v13.764
			c0,1.98,1.448,3.664,3.412,3.96c16.412,2.452,35.98,8.396,35.98,22.792c0,2.212,1.788,4,4,4c2.208,0,4-1.792,3.992-4.004
			C315.384,358.792,308.44,345.04,275.992,339.368z"/>
	</g>
</g>
<g>
	<g>
		<path d="M40,213.796c-2.212,0-4,1.792-4,4v16c0,2.208,1.788,4,4,4s4-1.792,4-4v-16C44,215.588,42.212,213.796,40,213.796z"/>
	</g>
</g>
<g>
	<g>
		<path d="M56,213.796H40c-2.212,0-4,1.792-4,4s1.788,4,4,4h16c2.212,0,4-1.792,4-4S58.212,213.796,56,213.796z"/>
	</g>
</g>
<g>
	<g>
		<path d="M472,213.796c-2.212,0-4,1.792-4,4v16c0,2.208,1.788,4,4,4c2.212,0,4-1.792,4-4v-16
			C476,215.588,474.212,213.796,472,213.796z"/>
	</g>
</g>
<g>
	<g>
		<path d="M472,213.796h-16c-2.212,0-4,1.792-4,4s1.788,4,4,4h16c2.212,0,4-1.792,4-4S474.212,213.796,472,213.796z"/>
	</g>
</g>
<g>
	<g>
		<path d="M472,397.796c-2.212,0-4,1.788-4,4v16c0,2.212,1.788,4,4,4c2.212,0,4-1.788,4-4v-16
			C476,399.584,474.212,397.796,472,397.796z"/>
	</g>
</g>
<g>
	<g>
		<path d="M472,413.796h-16c-2.212,0-4,1.788-4,4c0,2.212,1.788,4,4,4h16c2.212,0,4-1.788,4-4
			C476,415.584,474.212,413.796,472,413.796z"/>
	</g>
</g>
<g>
	<g>
		<path d="M40,397.796c-2.212,0-4,1.788-4,4v16c0,2.212,1.788,4,4,4s4-1.788,4-4v-16C44,399.584,42.212,397.796,40,397.796z"/>
	</g>
</g>
<g>
	<g>
		<path d="M56,413.796H40c-2.212,0-4,1.788-4,4c0,2.212,1.788,4,4,4h16c2.212,0,4-1.788,4-4C60,415.584,58.212,413.796,56,413.796z"
			/>
	</g>
</g>
<g>
	<g>
		<path d="M419.156,313.556c-2.212,0-4,1.788-4,4c0,11.212-9.12,20.332-20.336,20.332c-11.208,0-20.328-9.12-20.328-20.332
			c0-11.212,9.12-20.332,20.328-20.332c2.212,0,4-1.788,4-4c0-2.212-1.788-4-4-4c-15.62,0-28.328,12.712-28.328,28.332
			s12.708,28.332,28.328,28.332c15.624,0,28.336-12.708,28.336-28.332C423.156,315.344,421.368,313.556,419.156,313.556z"/>
	</g>
</g>
<g>
	<g>
		<path d="M345.364,162.756L257.64,55.668c-0.756-0.924-1.892-1.464-3.092-1.464c-1.196,0-2.332,0.54-3.092,1.464L163.324,163.26
			c-0.98,1.196-1.184,2.852-0.52,4.248c0.66,1.396,2.064,2.288,3.612,2.288H200v92c0,2.212,1.788,4,4,4h104c2.212,0,4-1.788,4-4.004
			v-92h30.68c0.032,0.004,0.06,0,0.08,0c2.212,0,4-1.792,4-4C346.76,164.58,346.22,163.488,345.364,162.756z M308,161.796
			c-2.212,0-4,1.792-4,4v92h-96v-92c0-2.208-1.788-4-4-4h-29.144l79.688-97.28l79.688,97.28H308z"/>
	</g>
</g>
<g>
	<g>
		<path d="M280,197.796c2.212,0,4-1.792,4-4V131.38c0-0.92-0.32-1.816-0.904-2.528l-23.748-29.04
			c-0.76-0.928-1.896-1.468-3.096-1.468c-1.196,0-2.336,0.54-3.096,1.468l-24.252,29.648c-0.584,0.712-0.904,1.608-0.904,2.532
			v101.804c0,2.208,1.788,4,4,4h48c2.212,0,4-1.792,4-4s-1.788-4-4-4h-44V133.42l20.252-24.76L276,132.808v60.988
			C276,196.004,277.788,197.796,280,197.796z"/>
	</g>
</g>
<g>
</g>
<g>
</g>
<g>
</g>
<g>
</g>
<g>
</g>
<g>
</g>
<g>
</g>
<g>
</g>
<g>
</g>
<g>
</g>
<g>
</g>
<g>
</g>
<g>
</g>
<g>
</g>
<g>
</g>
</svg>
